<mxfile host="app.diagrams.net" modified="2023-04-10T01:38:55.529Z" agent="Mozilla/5.0 (Windows NT 10.0; Win64; x64; rv:109.0) Gecko/20100101 Firefox/111.0" etag="5QpW19nYGUHymG0elB2L" version="21.1.2" type="device" pages="3">
  <diagram name="decision_tree" id="0pX78puNYP0HOyACpwhE">
    <mxGraphModel dx="1400" dy="755" grid="1" gridSize="10" guides="1" tooltips="1" connect="1" arrows="1" fold="1" page="1" pageScale="1" pageWidth="827" pageHeight="1169" math="0" shadow="0">
      <root>
        <mxCell id="0" />
        <mxCell id="1" parent="0" />
        <mxCell id="5JvgwBz9VrXP4FkjQyvd-15" style="edgeStyle=orthogonalEdgeStyle;rounded=0;orthogonalLoop=1;jettySize=auto;html=1;exitX=0.5;exitY=1;exitDx=0;exitDy=0;entryX=0.5;entryY=0;entryDx=0;entryDy=0;" edge="1" parent="1" source="5JvgwBz9VrXP4FkjQyvd-1" target="5JvgwBz9VrXP4FkjQyvd-4">
          <mxGeometry relative="1" as="geometry" />
        </mxCell>
        <mxCell id="5JvgwBz9VrXP4FkjQyvd-1" value="&lt;div&gt;&lt;font style=&quot;font-size: 14px;&quot;&gt;Выбрать признак для разделения данных&lt;/font&gt;&lt;/div&gt;" style="rounded=0;whiteSpace=wrap;html=1;" vertex="1" parent="1">
          <mxGeometry x="342" y="340" width="166" height="70" as="geometry" />
        </mxCell>
        <mxCell id="5JvgwBz9VrXP4FkjQyvd-13" style="edgeStyle=orthogonalEdgeStyle;rounded=0;orthogonalLoop=1;jettySize=auto;html=1;exitX=0.5;exitY=1;exitDx=0;exitDy=0;entryX=0.5;entryY=0;entryDx=0;entryDy=0;" edge="1" parent="1" source="5JvgwBz9VrXP4FkjQyvd-2" target="5JvgwBz9VrXP4FkjQyvd-7">
          <mxGeometry relative="1" as="geometry" />
        </mxCell>
        <mxCell id="5JvgwBz9VrXP4FkjQyvd-2" value="&lt;font style=&quot;font-size: 14px;&quot;&gt;Начало&lt;/font&gt;" style="rounded=1;whiteSpace=wrap;html=1;arcSize=50;" vertex="1" parent="1">
          <mxGeometry x="340" y="100" width="170" height="70" as="geometry" />
        </mxCell>
        <mxCell id="5JvgwBz9VrXP4FkjQyvd-16" style="edgeStyle=orthogonalEdgeStyle;rounded=0;orthogonalLoop=1;jettySize=auto;html=1;exitX=0.5;exitY=1;exitDx=0;exitDy=0;entryX=0.5;entryY=0;entryDx=0;entryDy=0;" edge="1" parent="1" source="5JvgwBz9VrXP4FkjQyvd-4" target="5JvgwBz9VrXP4FkjQyvd-5">
          <mxGeometry relative="1" as="geometry" />
        </mxCell>
        <mxCell id="5JvgwBz9VrXP4FkjQyvd-4" value="&lt;font style=&quot;font-size: 14px;&quot;&gt;Разбить данные на два подмножества по выбранному признаку&lt;br&gt;&lt;/font&gt;" style="rounded=0;whiteSpace=wrap;html=1;" vertex="1" parent="1">
          <mxGeometry x="342" y="460" width="166" height="70" as="geometry" />
        </mxCell>
        <mxCell id="5JvgwBz9VrXP4FkjQyvd-17" style="edgeStyle=orthogonalEdgeStyle;rounded=0;orthogonalLoop=1;jettySize=auto;html=1;exitX=0.5;exitY=1;exitDx=0;exitDy=0;entryX=0.5;entryY=1;entryDx=0;entryDy=0;" edge="1" parent="1" source="5JvgwBz9VrXP4FkjQyvd-5" target="5JvgwBz9VrXP4FkjQyvd-8">
          <mxGeometry relative="1" as="geometry" />
        </mxCell>
        <mxCell id="5JvgwBz9VrXP4FkjQyvd-5" value="&lt;font style=&quot;font-size: 14px;&quot;&gt;Создать дочерние узлы для каждого подмножества&lt;br&gt;&lt;/font&gt;" style="rounded=0;whiteSpace=wrap;html=1;" vertex="1" parent="1">
          <mxGeometry x="342" y="580" width="166" height="70" as="geometry" />
        </mxCell>
        <mxCell id="5JvgwBz9VrXP4FkjQyvd-14" style="edgeStyle=orthogonalEdgeStyle;rounded=0;orthogonalLoop=1;jettySize=auto;html=1;exitX=0.5;exitY=1;exitDx=0;exitDy=0;entryX=0.5;entryY=0;entryDx=0;entryDy=0;" edge="1" parent="1" source="5JvgwBz9VrXP4FkjQyvd-7" target="5JvgwBz9VrXP4FkjQyvd-1">
          <mxGeometry relative="1" as="geometry" />
        </mxCell>
        <mxCell id="5JvgwBz9VrXP4FkjQyvd-7" value="&lt;div style=&quot;font-size: 14px;&quot;&gt;&lt;font style=&quot;font-size: 14px;&quot;&gt;А&lt;/font&gt;&lt;/div&gt;&lt;div style=&quot;font-size: 14px;&quot;&gt;&lt;font style=&quot;font-size: 14px;&quot;&gt;Пока не достигнут критерий остановки&lt;font style=&quot;font-size: 14px;&quot;&gt;&lt;br&gt;&lt;/font&gt;&lt;/font&gt;&lt;/div&gt;" style="shape=loopLimit;whiteSpace=wrap;html=1;" vertex="1" parent="1">
          <mxGeometry x="345" y="220" width="160" height="70" as="geometry" />
        </mxCell>
        <mxCell id="5JvgwBz9VrXP4FkjQyvd-11" value="" style="group" vertex="1" connectable="0" parent="1">
          <mxGeometry x="345" y="700" width="160" height="70" as="geometry" />
        </mxCell>
        <mxCell id="5JvgwBz9VrXP4FkjQyvd-8" value="" style="shape=loopLimit;whiteSpace=wrap;html=1;rotation=-180;" vertex="1" parent="5JvgwBz9VrXP4FkjQyvd-11">
          <mxGeometry width="160" height="70" as="geometry" />
        </mxCell>
        <mxCell id="5JvgwBz9VrXP4FkjQyvd-9" value="&lt;font style=&quot;font-size: 14px;&quot;&gt;А&lt;/font&gt;" style="text;html=1;strokeColor=none;fillColor=none;align=center;verticalAlign=middle;whiteSpace=wrap;rounded=0;" vertex="1" parent="5JvgwBz9VrXP4FkjQyvd-11">
          <mxGeometry x="50" y="20" width="60" height="30" as="geometry" />
        </mxCell>
        <mxCell id="5JvgwBz9VrXP4FkjQyvd-20" style="edgeStyle=orthogonalEdgeStyle;rounded=0;orthogonalLoop=1;jettySize=auto;html=1;exitX=0.5;exitY=1;exitDx=0;exitDy=0;entryX=0.5;entryY=0;entryDx=0;entryDy=0;" edge="1" parent="1" source="5JvgwBz9VrXP4FkjQyvd-12" target="5JvgwBz9VrXP4FkjQyvd-19">
          <mxGeometry relative="1" as="geometry" />
        </mxCell>
        <mxCell id="5JvgwBz9VrXP4FkjQyvd-12" value="&lt;font style=&quot;font-size: 14px;&quot;&gt;Указать в листовых узлах наиболее частый класс объектов&lt;br&gt;&lt;/font&gt;" style="rounded=0;whiteSpace=wrap;html=1;" vertex="1" parent="1">
          <mxGeometry x="342" y="820" width="166" height="70" as="geometry" />
        </mxCell>
        <mxCell id="5JvgwBz9VrXP4FkjQyvd-18" style="edgeStyle=orthogonalEdgeStyle;rounded=0;orthogonalLoop=1;jettySize=auto;html=1;exitX=0.5;exitY=0;exitDx=0;exitDy=0;" edge="1" parent="1" source="5JvgwBz9VrXP4FkjQyvd-8" target="5JvgwBz9VrXP4FkjQyvd-12">
          <mxGeometry relative="1" as="geometry" />
        </mxCell>
        <mxCell id="5JvgwBz9VrXP4FkjQyvd-19" value="&lt;font style=&quot;font-size: 14px;&quot;&gt;Конец&lt;/font&gt;" style="rounded=1;whiteSpace=wrap;html=1;arcSize=50;" vertex="1" parent="1">
          <mxGeometry x="340" y="940" width="170" height="70" as="geometry" />
        </mxCell>
      </root>
    </mxGraphModel>
  </diagram>
  <diagram id="qo6TtWfCsWRMUc2_V7Cf" name="random_forest">
    <mxGraphModel dx="1000" dy="539" grid="1" gridSize="10" guides="1" tooltips="1" connect="1" arrows="1" fold="1" page="1" pageScale="1" pageWidth="827" pageHeight="1169" math="0" shadow="0">
      <root>
        <mxCell id="0" />
        <mxCell id="1" parent="0" />
        <mxCell id="nJQqzYW6sRFDOmXkoJ_j-20" value="" style="edgeStyle=orthogonalEdgeStyle;rounded=0;orthogonalLoop=1;jettySize=auto;html=1;" edge="1" parent="1" source="nJQqzYW6sRFDOmXkoJ_j-2" target="nJQqzYW6sRFDOmXkoJ_j-10">
          <mxGeometry relative="1" as="geometry" />
        </mxCell>
        <mxCell id="nJQqzYW6sRFDOmXkoJ_j-2" value="&lt;div&gt;&lt;font style=&quot;font-size: 14px;&quot;&gt;n := количество деревьев в лесу&lt;br&gt;&lt;/font&gt;&lt;/div&gt;" style="rounded=0;whiteSpace=wrap;html=1;" vertex="1" parent="1">
          <mxGeometry x="342" y="210" width="166" height="70" as="geometry" />
        </mxCell>
        <mxCell id="nJQqzYW6sRFDOmXkoJ_j-19" value="" style="edgeStyle=orthogonalEdgeStyle;rounded=0;orthogonalLoop=1;jettySize=auto;html=1;" edge="1" parent="1" source="nJQqzYW6sRFDOmXkoJ_j-4" target="nJQqzYW6sRFDOmXkoJ_j-2">
          <mxGeometry relative="1" as="geometry" />
        </mxCell>
        <mxCell id="nJQqzYW6sRFDOmXkoJ_j-4" value="&lt;font style=&quot;font-size: 14px;&quot;&gt;Начало&lt;/font&gt;" style="rounded=1;whiteSpace=wrap;html=1;arcSize=50;" vertex="1" parent="1">
          <mxGeometry x="340" y="90" width="170" height="70" as="geometry" />
        </mxCell>
        <mxCell id="nJQqzYW6sRFDOmXkoJ_j-22" value="" style="edgeStyle=orthogonalEdgeStyle;rounded=0;orthogonalLoop=1;jettySize=auto;html=1;" edge="1" parent="1" source="nJQqzYW6sRFDOmXkoJ_j-6" target="nJQqzYW6sRFDOmXkoJ_j-8">
          <mxGeometry relative="1" as="geometry" />
        </mxCell>
        <mxCell id="nJQqzYW6sRFDOmXkoJ_j-6" value="&lt;font style=&quot;font-size: 14px;&quot;&gt;Случайным образом выбрать подмножество объектов и признаков&lt;br&gt;&lt;/font&gt;" style="rounded=0;whiteSpace=wrap;html=1;" vertex="1" parent="1">
          <mxGeometry x="342" y="450" width="166" height="70" as="geometry" />
        </mxCell>
        <mxCell id="nJQqzYW6sRFDOmXkoJ_j-26" style="edgeStyle=orthogonalEdgeStyle;rounded=0;orthogonalLoop=1;jettySize=auto;html=1;exitX=0.5;exitY=1;exitDx=0;exitDy=0;entryX=0.5;entryY=1;entryDx=0;entryDy=0;" edge="1" parent="1" source="nJQqzYW6sRFDOmXkoJ_j-8" target="nJQqzYW6sRFDOmXkoJ_j-12">
          <mxGeometry relative="1" as="geometry" />
        </mxCell>
        <mxCell id="nJQqzYW6sRFDOmXkoJ_j-8" value="&lt;font style=&quot;font-size: 14px;&quot;&gt;Обучить дерево решений на выбранном подмножестве&lt;br&gt;&lt;/font&gt;" style="rounded=0;whiteSpace=wrap;html=1;" vertex="1" parent="1">
          <mxGeometry x="342" y="570" width="166" height="70" as="geometry" />
        </mxCell>
        <mxCell id="nJQqzYW6sRFDOmXkoJ_j-21" value="" style="edgeStyle=orthogonalEdgeStyle;rounded=0;orthogonalLoop=1;jettySize=auto;html=1;" edge="1" parent="1" source="nJQqzYW6sRFDOmXkoJ_j-10" target="nJQqzYW6sRFDOmXkoJ_j-6">
          <mxGeometry relative="1" as="geometry" />
        </mxCell>
        <mxCell id="nJQqzYW6sRFDOmXkoJ_j-10" value="&lt;div style=&quot;font-size: 14px;&quot;&gt;&lt;font style=&quot;font-size: 14px;&quot;&gt;А&lt;/font&gt;&lt;/div&gt;&lt;div style=&quot;font-size: 14px;&quot;&gt;&lt;font style=&quot;font-size: 14px;&quot;&gt;Для каждого дерева в лесу&lt;font style=&quot;font-size: 14px;&quot;&gt;&lt;br&gt;&lt;/font&gt;&lt;/font&gt;&lt;/div&gt;" style="shape=loopLimit;whiteSpace=wrap;html=1;" vertex="1" parent="1">
          <mxGeometry x="345" y="330" width="160" height="70" as="geometry" />
        </mxCell>
        <mxCell id="nJQqzYW6sRFDOmXkoJ_j-11" value="" style="group" vertex="1" connectable="0" parent="1">
          <mxGeometry x="345" y="690" width="160" height="70" as="geometry" />
        </mxCell>
        <mxCell id="nJQqzYW6sRFDOmXkoJ_j-12" value="" style="shape=loopLimit;whiteSpace=wrap;html=1;rotation=-180;" vertex="1" parent="nJQqzYW6sRFDOmXkoJ_j-11">
          <mxGeometry width="160" height="70" as="geometry" />
        </mxCell>
        <mxCell id="nJQqzYW6sRFDOmXkoJ_j-13" value="&lt;font style=&quot;font-size: 14px;&quot;&gt;А&lt;/font&gt;" style="text;html=1;strokeColor=none;fillColor=none;align=center;verticalAlign=middle;whiteSpace=wrap;rounded=0;" vertex="1" parent="nJQqzYW6sRFDOmXkoJ_j-11">
          <mxGeometry x="50" y="20" width="60" height="30" as="geometry" />
        </mxCell>
        <mxCell id="nJQqzYW6sRFDOmXkoJ_j-17" value="&lt;font style=&quot;font-size: 14px;&quot;&gt;Конец&lt;/font&gt;" style="rounded=1;whiteSpace=wrap;html=1;arcSize=50;" vertex="1" parent="1">
          <mxGeometry x="340" y="810" width="170" height="70" as="geometry" />
        </mxCell>
        <mxCell id="nJQqzYW6sRFDOmXkoJ_j-27" value="" style="edgeStyle=orthogonalEdgeStyle;rounded=0;orthogonalLoop=1;jettySize=auto;html=1;" edge="1" parent="1" source="nJQqzYW6sRFDOmXkoJ_j-12" target="nJQqzYW6sRFDOmXkoJ_j-17">
          <mxGeometry relative="1" as="geometry" />
        </mxCell>
      </root>
    </mxGraphModel>
  </diagram>
  <diagram id="LWPbszQ8-P8nham7geie" name="boosting">
    <mxGraphModel dx="1235" dy="666" grid="1" gridSize="10" guides="1" tooltips="1" connect="1" arrows="1" fold="1" page="1" pageScale="1" pageWidth="827" pageHeight="1169" math="0" shadow="0">
      <root>
        <mxCell id="0" />
        <mxCell id="1" parent="0" />
        <mxCell id="GCfFAQx6YSg5iRharVBc-19" style="edgeStyle=orthogonalEdgeStyle;rounded=0;orthogonalLoop=1;jettySize=auto;html=1;exitX=0.5;exitY=1;exitDx=0;exitDy=0;entryX=0.5;entryY=0;entryDx=0;entryDy=0;" edge="1" parent="1" source="4ZvhxgYkxoARXMKD66MN-2" target="4ZvhxgYkxoARXMKD66MN-10">
          <mxGeometry relative="1" as="geometry" />
        </mxCell>
        <mxCell id="4ZvhxgYkxoARXMKD66MN-2" value="&lt;div&gt;&lt;font style=&quot;font-size: 14px;&quot;&gt;Создать начальное дерево решений и обучить его&lt;br&gt;&lt;/font&gt;&lt;/div&gt;" style="rounded=0;whiteSpace=wrap;html=1;" vertex="1" parent="1">
          <mxGeometry x="322" y="129" width="166" height="70" as="geometry" />
        </mxCell>
        <mxCell id="GCfFAQx6YSg5iRharVBc-7" value="" style="edgeStyle=orthogonalEdgeStyle;rounded=0;orthogonalLoop=1;jettySize=auto;html=1;" edge="1" parent="1" source="4ZvhxgYkxoARXMKD66MN-4" target="4ZvhxgYkxoARXMKD66MN-2">
          <mxGeometry relative="1" as="geometry" />
        </mxCell>
        <mxCell id="4ZvhxgYkxoARXMKD66MN-4" value="&lt;font style=&quot;font-size: 14px;&quot;&gt;Начало&lt;/font&gt;" style="rounded=1;whiteSpace=wrap;html=1;arcSize=50;" vertex="1" parent="1">
          <mxGeometry x="320" y="9" width="170" height="70" as="geometry" />
        </mxCell>
        <mxCell id="GCfFAQx6YSg5iRharVBc-11" value="" style="edgeStyle=orthogonalEdgeStyle;rounded=0;orthogonalLoop=1;jettySize=auto;html=1;" edge="1" parent="1" source="4ZvhxgYkxoARXMKD66MN-8" target="4ZvhxgYkxoARXMKD66MN-15">
          <mxGeometry relative="1" as="geometry" />
        </mxCell>
        <mxCell id="4ZvhxgYkxoARXMKD66MN-8" value="&lt;font style=&quot;font-size: 14px;&quot;&gt;Для каждого объекта выборки вычислить остаток&lt;br&gt;&lt;/font&gt;" style="rounded=0;whiteSpace=wrap;html=1;" vertex="1" parent="1">
          <mxGeometry x="322" y="370" width="166" height="70" as="geometry" />
        </mxCell>
        <mxCell id="GCfFAQx6YSg5iRharVBc-10" value="" style="edgeStyle=orthogonalEdgeStyle;rounded=0;orthogonalLoop=1;jettySize=auto;html=1;" edge="1" parent="1" source="4ZvhxgYkxoARXMKD66MN-10" target="4ZvhxgYkxoARXMKD66MN-8">
          <mxGeometry relative="1" as="geometry" />
        </mxCell>
        <mxCell id="4ZvhxgYkxoARXMKD66MN-10" value="&lt;div style=&quot;font-size: 14px;&quot;&gt;&lt;font style=&quot;font-size: 14px;&quot;&gt;А&lt;/font&gt;&lt;/div&gt;&lt;div style=&quot;font-size: 14px;&quot;&gt;&lt;font style=&quot;font-size: 14px;&quot;&gt;Пока не достигнут критерий остановки&lt;font style=&quot;font-size: 14px;&quot;&gt;&lt;br&gt;&lt;/font&gt;&lt;/font&gt;&lt;/div&gt;" style="shape=loopLimit;whiteSpace=wrap;html=1;" vertex="1" parent="1">
          <mxGeometry x="325" y="250" width="160" height="70" as="geometry" />
        </mxCell>
        <mxCell id="4ZvhxgYkxoARXMKD66MN-11" value="" style="group" vertex="1" connectable="0" parent="1">
          <mxGeometry x="325" y="850" width="160" height="70" as="geometry" />
        </mxCell>
        <mxCell id="4ZvhxgYkxoARXMKD66MN-12" value="" style="shape=loopLimit;whiteSpace=wrap;html=1;rotation=-180;" vertex="1" parent="4ZvhxgYkxoARXMKD66MN-11">
          <mxGeometry width="160" height="70" as="geometry" />
        </mxCell>
        <mxCell id="4ZvhxgYkxoARXMKD66MN-13" value="&lt;font style=&quot;font-size: 14px;&quot;&gt;А&lt;/font&gt;" style="text;html=1;strokeColor=none;fillColor=none;align=center;verticalAlign=middle;whiteSpace=wrap;rounded=0;" vertex="1" parent="4ZvhxgYkxoARXMKD66MN-11">
          <mxGeometry x="50" y="20" width="60" height="30" as="geometry" />
        </mxCell>
        <mxCell id="GCfFAQx6YSg5iRharVBc-12" value="" style="edgeStyle=orthogonalEdgeStyle;rounded=0;orthogonalLoop=1;jettySize=auto;html=1;" edge="1" parent="1" source="4ZvhxgYkxoARXMKD66MN-15" target="GCfFAQx6YSg5iRharVBc-1">
          <mxGeometry relative="1" as="geometry" />
        </mxCell>
        <mxCell id="4ZvhxgYkxoARXMKD66MN-15" value="&lt;font style=&quot;font-size: 14px;&quot;&gt;Построить новое дерево на основе остатков&lt;br&gt;&lt;/font&gt;" style="rounded=0;whiteSpace=wrap;html=1;" vertex="1" parent="1">
          <mxGeometry x="322" y="490" width="166" height="70" as="geometry" />
        </mxCell>
        <mxCell id="4ZvhxgYkxoARXMKD66MN-17" value="&lt;font style=&quot;font-size: 14px;&quot;&gt;Конец&lt;/font&gt;" style="rounded=1;whiteSpace=wrap;html=1;arcSize=50;" vertex="1" parent="1">
          <mxGeometry x="320" y="970" width="170" height="70" as="geometry" />
        </mxCell>
        <mxCell id="GCfFAQx6YSg5iRharVBc-13" value="" style="edgeStyle=orthogonalEdgeStyle;rounded=0;orthogonalLoop=1;jettySize=auto;html=1;" edge="1" parent="1" source="GCfFAQx6YSg5iRharVBc-1" target="GCfFAQx6YSg5iRharVBc-2">
          <mxGeometry relative="1" as="geometry" />
        </mxCell>
        <mxCell id="GCfFAQx6YSg5iRharVBc-1" value="&lt;font style=&quot;font-size: 14px;&quot;&gt;Вычислить коэффициент обучения&lt;br&gt;&lt;/font&gt;" style="rounded=0;whiteSpace=wrap;html=1;" vertex="1" parent="1">
          <mxGeometry x="322" y="610" width="166" height="70" as="geometry" />
        </mxCell>
        <mxCell id="GCfFAQx6YSg5iRharVBc-17" style="edgeStyle=orthogonalEdgeStyle;rounded=0;orthogonalLoop=1;jettySize=auto;html=1;exitX=0.5;exitY=1;exitDx=0;exitDy=0;entryX=0.5;entryY=1;entryDx=0;entryDy=0;" edge="1" parent="1" source="GCfFAQx6YSg5iRharVBc-2" target="4ZvhxgYkxoARXMKD66MN-12">
          <mxGeometry relative="1" as="geometry" />
        </mxCell>
        <mxCell id="GCfFAQx6YSg5iRharVBc-2" value="&lt;font style=&quot;font-size: 14px;&quot;&gt;Добавить дерево в итоговую модель, учитывая коэффициент&lt;br&gt;&lt;/font&gt;" style="rounded=0;whiteSpace=wrap;html=1;" vertex="1" parent="1">
          <mxGeometry x="322" y="730" width="166" height="70" as="geometry" />
        </mxCell>
        <mxCell id="GCfFAQx6YSg5iRharVBc-18" value="" style="edgeStyle=orthogonalEdgeStyle;rounded=0;orthogonalLoop=1;jettySize=auto;html=1;" edge="1" parent="1" source="4ZvhxgYkxoARXMKD66MN-12" target="4ZvhxgYkxoARXMKD66MN-17">
          <mxGeometry relative="1" as="geometry" />
        </mxCell>
      </root>
    </mxGraphModel>
  </diagram>
</mxfile>
